<svg xmlns="http://www.w3.org/2000/svg" width="93.083" height="93.036" viewBox="0 0 93.083 93.036"><defs><style>.a{fill:#ff3636;}.b{fill:#fff;}</style></defs><g transform="translate(-575.999 -527.986)"><path class="a" d="M555.079,313.355c3.288.805,6.662,1.184,9.9,2.253,20.283,6.689,33.634,26.282,32.13,47.251a46.532,46.532,0,0,1-38.5,42.821c-26.036,4.633-51.035-13.889-54.094-40.077a1.961,1.961,0,0,0-.376-1.314v-8.823a7.287,7.287,0,0,0,.352-1.113c2.853-18.909,13.3-31.672,31.114-38.484,3.436-1.314,7.091-1.7,10.644-2.513ZM550.6,401.584a41.708,41.708,0,1,0-41.644-41.722A41.76,41.76,0,0,0,550.6,401.584Z" transform="translate(71.853 214.631)"/><path class="b" d="M601.707,435.716c0-3.137-.033-6.274.008-9.41a7.209,7.209,0,1,1,14.414-.031q.069,9.51,0,19.021a7.2,7.2,0,1,1-14.408.031C601.665,442.124,601.708,438.92,601.707,435.716Z" transform="translate(13.597 151.59)"/><path class="b" d="M616.165,368.292a7.212,7.212,0,1,1-7.343-7.132A7.233,7.233,0,0,1,616.165,368.292Z" transform="translate(13.566 186.081)"/></g></svg>