<?xml version="1.0" encoding="utf-8"?>
<!-- Generator: Adobe Illustrator 24.3.0, SVG Export Plug-In . SVG Version: 6.00 Build 0)  -->
<svg version="1.1" id="Layer_1" xmlns="http://www.w3.org/2000/svg" xmlns:xlink="http://www.w3.org/1999/xlink" x="0px" y="0px"
	 viewBox="0 0 300 300" style="enable-background:new 0 0 300 300;" xml:space="preserve">
<g>
	<path d="M227,95.5c-0.7-0.4-1.4,0.4-2,0.8c-24.4,15.2-48.9,30.5-73.3,45.8c-1.3,0.8-2.2,0.8-3.4,0c-24.5-15.4-49.1-30.7-73.7-46
		c-0.5-0.3-1-1-1.6-0.6c-0.5,0.3-0.3,1.1-0.3,1.7c0,5.1,0,10.2,0,15.3c0,1.5,0.5,2.3,1.8,3.1c24.7,15.4,49.3,30.7,73.9,46.2
		c1.2,0.7,2.1,0.8,3.3,0c9.1-5.8,18.3-11.4,27.4-17.1c15.5-9.7,31.1-19.4,46.7-29.1c1.1-0.7,1.6-1.5,1.6-2.8c-0.1-2.5,0-5.1,0-7.7
		c0-2.5,0-5,0-7.5C227.3,96.8,227.6,95.8,227,95.5z"/>
	<path d="M0,0v300h300V0H0z M241.8,222.8c-3.8,4.5-8.7,6.8-14.7,6.8c-25.7,0-51.4,0-77.1,0c-25.7,0-51.4,0-77.1,0
		c-9.1,0-16.8-6.3-18.7-15.2c-0.4-1.7-0.5-3.4-0.5-5.2c0-12.6-0.1-25.1,0-37.7c0.2-25.5,0.1-50.9,0.2-76.4c0-8.8,5-15.6,13.2-18.4
		c2.4-0.8,4.8-0.8,7.3-0.8c35.9,0,71.7,0,107.6,0c15.5,0,31.1-0.1,46.6,0.1c8.6,0.1,16.8,8.2,17.4,16.9c0.1,1.1,0.1,2.2,0.1,3.4
		c0,37.6,0,75.3,0,113C246.2,214.4,245.1,219,241.8,222.8z"/>
</g>
</svg>
