<?xml version="1.0" encoding="utf-8"?>
<!-- Generator: Adobe Illustrator 24.3.0, SVG Export Plug-In . SVG Version: 6.00 Build 0)  -->
<svg version="1.1" id="Layer_1" xmlns="http://www.w3.org/2000/svg" xmlns:xlink="http://www.w3.org/1999/xlink" x="0px" y="0px"
	 viewBox="0 0 300 300" style="enable-background:new 0 0 300 300;" xml:space="preserve">
<path d="M198.2,120.5c-21.5,0-43.1,0-64.6,0c-1.3,0-2,0.4-2.6,1.6c-10,18.6-20.1,37.1-30.2,55.7c-1,1.8-0.9,1.8,1.1,1.8
	c10.8,0,21.6,0,32.4,0c10.7,0,21.3,0,32,0c1.6,0,2.4-0.5,3.1-1.9c10-18.4,20-36.9,29.9-55.3C200.3,120.6,200.2,120.5,198.2,120.5z"
	/>
<path d="M0,0v300h300V0H0z M148.1,243.1c-49.2-1.1-91-40.8-91.3-93.3c0.3-51.1,41.2-93.2,93.6-93c51.7,0.2,93,42.2,92.8,93.7
	C243,202.2,200,244.2,148.1,243.1z"/>
</svg>
