<?xml version="1.0" encoding="utf-8"?>
<!-- Generator: Adobe Illustrator 24.3.0, SVG Export Plug-In . SVG Version: 6.00 Build 0)  -->
<svg version="1.1" id="Layer_1" xmlns="http://www.w3.org/2000/svg" xmlns:xlink="http://www.w3.org/1999/xlink" x="0px" y="0px"
	 viewBox="0 0 300 300" style="enable-background:new 0 0 300 300;" xml:space="preserve">
<path d="M202.4,80.1c-6.6,0-11.8,5.2-11.8,11.7c0,6.6,5.1,11.8,11.7,11.8c6.5,0,11.8-5.2,11.8-11.6C214.1,85.3,209,80.1,202.4,80.1z
	"/>
<path d="M0,0v300h300V0H0z M242.9,183.3c0,7.8-1.1,15.4-4.2,22.6c-8.5,19.9-23.4,32.1-44.7,36.2c-3.7,0.7-7.4,0.9-11.1,0.9
	c-22,0-44.1,0-66.1,0c-7.8,0-15.5-1.1-22.7-4.2c-20.8-9-33.1-24.7-36.4-47.2c-0.5-3.2-0.6-6.4-0.6-9.6c0-21.7,0-43.5,0-65.2
	c0-7.8,1.1-15.5,4.2-22.7c8.6-20,23.5-32.1,44.9-36.1c3.6-0.7,7.3-0.8,11-0.9c11.1,0,22.2,0,33.4,0c10.9,0,21.8,0,32.8,0
	c17.7,0.1,32.7,6.5,44.5,19.6c8.2,9.1,13.2,19.8,14.5,32.1c0.4,3.4,0.5,6.8,0.5,10.2C243,140.4,243,161.8,242.9,183.3z"/>
<path d="M150.2,93.5c-31-0.2-56,25.2-56.7,54.9c-0.8,32.1,25.3,58.4,56.5,58.1c30.9,0.3,56.4-25.4,56.4-56.2
	C206.5,118.9,181.5,93.7,150.2,93.5z M150,182.9c-18.1,0.1-33-14.4-33-33.5c0.3-17,13.9-32.2,32.9-32.3c17.7,0,32.8,13.7,32.9,33.1
	C182.9,168.4,168.2,182.8,150,182.9z"/>
</svg>
