<?xml version="1.0" encoding="utf-8"?>
<!-- Generator: Adobe Illustrator 24.3.0, SVG Export Plug-In . SVG Version: 6.00 Build 0)  -->
<svg version="1.1" id="Layer_1" xmlns="http://www.w3.org/2000/svg" xmlns:xlink="http://www.w3.org/1999/xlink" x="0px" y="0px"
	 viewBox="0 0 300 300" style="enable-background:new 0 0 300 300;" xml:space="preserve">
<path d="M0,0v300h300V0H0z M203.8,227.4c-11,8.1-23.4,13.1-36.8,15.4c-1.9,0.3-2,0.3-2-1.7c0-10.2,0-20.4,0-30.6
	c0-10.2,0-20.3,0-30.5c0-2,0.1-2.1,2.1-2.1c5.9,0,11.7,0,17.6,0c1.6,0,2.2-0.4,2.5-2.1c1.1-7.9,2.3-15.8,3.6-23.7
	c0.3-1.5-0.3-1.9-1.7-1.9c-7.2,0-14.5,0-21.7,0c-2.4,0-2.4,0-2.4-2.4c0-5.2,0-10.4,0-15.6c0-8.2,5.2-13.5,13.4-13.8
	c3.9-0.1,7.9-0.1,11.8-0.1c1.4,0,2-0.5,2-1.9c-0.1-6.6,0-13.2,0-19.7c0-1.3-0.4-1.9-1.8-2.1c-7.3-1-14.6-1.8-21.9-1.5
	c-9.9,0.4-18.6,3.6-25.2,11.3c-4.4,5.2-6.6,11.3-7.5,18c-1,7.1-0.4,14.3-0.5,21.4c0,1.4,0,2.9,0,4.3c0,1.9-0.2,2-2,2
	c-6.4,0-12.8,0-19.1,0c-2.7,0-2.7,0-2.7,2.7c0,7.5,0,15,0,22.5c0,2.3,0.1,2.4,2.4,2.4c6.4,0,12.8,0,19.1,0c2.2,0,2.3,0.1,2.3,2.2
	c0,20.3,0,40.5,0,60.8c0,2-0.1,2.2-2.1,1.8c-16.5-3-31.3-10-44-20.9c-18.1-15.7-29-35.4-32-59.2c-3.4-26.8,3.6-50.9,20.8-71.8
	c14.8-18,33.9-29,56.8-32.7c41.5-6.7,80.9,14.1,99.3,50.9c5.5,11,8.8,22.7,9.4,35.1C245.3,179.1,231.8,206.8,203.8,227.4z"/>
</svg>
