<?xml version="1.0" encoding="utf-8"?>
<!-- Generator: Adobe Illustrator 24.3.0, SVG Export Plug-In . SVG Version: 6.00 Build 0)  -->
<svg version="1.0" id="Layer_1" xmlns="http://www.w3.org/2000/svg" xmlns:xlink="http://www.w3.org/1999/xlink" x="0px" y="0px"
	 viewBox="0 0 400 400" style="enable-background:new 0 0 400 400;" xml:space="preserve">
<style type="text/css">
	.st0{fill:#FFFFFF;}
</style>
<path class="st0" d="M380,138.3c0,41.8,0,83.7,0,125.6c0,15.2-2.2,30-8.2,44.1c-16.6,38.9-45.7,62.6-87.3,70.7
	c-7.2,1.4-14.4,1.8-21.7,1.8c-43,0-86.1,0.1-129.1,0c-15.2,0-30.3-2.1-44.4-8.2C48.5,354.6,24.5,324,18,280
	c-0.9-6.2-1.1-12.5-1.1-18.8c0-42.4,0-84.9,0-127.3c0-15.3,2.2-30.2,8.3-44.4c16.7-39,46-62.6,87.8-70.5c7.1-1.3,14.2-1.6,21.4-1.7
	c21.7-0.1,43.4,0,65.2,0c21.3,0,42.7-0.1,64,0c34.5,0.2,63.8,12.7,87,38.3c16.1,17.8,25.7,38.7,28.4,62.6
	C379.7,124.9,380,131.6,380,138.3z M323.6,85.6c0.1-13-10-23.3-22.9-23.3c-12.8,0-23,10.1-23,22.9c0,12.9,10,23,22.9,23
	C313.3,108.2,323.6,98.1,323.6,85.6z M308.7,199.5c0-61.3-48.8-110.5-109.9-110.9c-60.6-0.4-109.3,49.2-110.7,107.2
	c-1.5,62.8,49.4,114,110.4,113.4C258.9,309.6,308.7,259.5,308.7,199.5z"/>
<path class="st0" d="M262.6,199.3c0.1,35.5-28.5,63.7-64.1,63.8c-35.3,0.1-64.4-28.1-64.4-65.4c0.6-33.3,27.1-62.9,64.3-63
	C233,134.6,262.5,161.4,262.6,199.3z"/>
</svg>
