<?xml version="1.0" encoding="utf-8"?>
<!-- Generator: Adobe Illustrator 24.3.0, SVG Export Plug-In . SVG Version: 6.00 Build 0)  -->
<svg version="1.0" id="Layer_1" xmlns="http://www.w3.org/2000/svg" xmlns:xlink="http://www.w3.org/1999/xlink" x="0px" y="0px"
	 viewBox="0 0 400 400" style="enable-background:new 0 0 400 400;" xml:space="preserve">
<style type="text/css">
	.st0{fill:#FFFFFF;}
</style>
<path class="st0" d="M381.9,92.9c0-2.1-0.1-4.2-0.2-6.4c-1-16.3-16.5-31.7-32.9-31.9c-29.3-0.3-58.7-0.2-88-0.2
	c-67.8,0-135.5,0-203.3,0c-4.6,0-9.3-0.1-13.7,1.5c-15.7,5.4-25,18.3-25,34.8c-0.2,48.1,0.1,96.2-0.3,144.3
	c-0.2,23.7-0.1,47.4-0.1,71.1c0,3.3,0.2,6.6,0.9,9.8c3.5,16.8,18,28.6,35.2,28.6c48.6,0,97.1,0,145.7,0c48.6,0,97.1,0,145.7,0
	c11.2,0,20.4-4.4,27.7-12.9c6.3-7.3,8.5-15.9,8.4-25.5C381.9,235.1,381.9,164,381.9,92.9z M346.2,109c0,4.8-0.1,9.6,0.1,14.5
	c0.1,2.6-0.9,4-3,5.3c-29.4,18.3-58.8,36.7-88.2,55c-17.3,10.8-34.6,21.5-51.8,32.4c-2.3,1.5-4,1.4-6.2,0
	C150.6,187,104,158,57.4,129c-2.3-1.4-3.4-3-3.3-5.8c0.1-9.6,0-19.3,0.1-28.9c0-1.1-0.4-2.6,0.6-3.3c1.1-0.7,2.1,0.6,3,1.1
	c46.4,29,92.8,57.9,139.2,86.9c2.4,1.5,4.1,1.5,6.5,0c46.1-28.9,92.3-57.7,138.5-86.5c1.2-0.7,2.4-2.3,3.8-1.5
	c1.1,0.7,0.5,2.5,0.5,3.8C346.3,99.6,346.2,104.3,346.2,109z"/>
</svg>
