<?xml version="1.0" encoding="utf-8"?>
<!-- Generator: Adobe Illustrator 24.3.0, SVG Export Plug-In . SVG Version: 6.00 Build 0)  -->
<svg version="1.0" id="Layer_1" xmlns="http://www.w3.org/2000/svg" xmlns:xlink="http://www.w3.org/1999/xlink" x="0px" y="0px"
	 viewBox="0 0 400 400" style="enable-background:new 0 0 400 400;" xml:space="preserve">
<style type="text/css">
	.st0{fill:#FFFFFF;}
</style>
<path class="st0" d="M387.8,186.7c3.7,70.4-23.5,126.3-80,167.9c-22.1,16.2-47.1,26.4-74.2,31.1c-3.9,0.7-4.1,0.6-4.1-3.3
	c0-20.6,0-41.1,0-61.7c0-20.5,0-40.9,0-61.4c0-4,0.1-4.1,4.2-4.1c11.8,0,23.7-0.1,35.5,0c3.1,0,4.5-0.8,5-4.2
	c2.3-16,4.7-31.9,7.3-47.8c0.5-3.1-0.6-3.8-3.3-3.8c-14.6,0-29.2,0-43.8,0c-4.8,0-4.8,0-4.8-4.8c0-10.5,0-21,0-31.5
	c0.1-16.5,10.5-27.3,27-27.7c7.9-0.2,15.8-0.2,23.8-0.1c2.8,0,4.1-0.9,4-3.9c-0.1-13.3-0.1-26.5,0-39.8c0-2.6-0.8-3.8-3.6-4.2
	c-14.7-2.1-29.4-3.6-44.2-2.9c-19.9,0.9-37.5,7.2-50.8,22.8c-8.9,10.4-13.3,22.8-15.2,36.2c-2,14.3-0.7,28.8-1,43.1
	c-0.1,2.9,0,5.8,0,8.6c0,3.7-0.4,4.1-4.1,4.1c-12.9,0-25.7,0-38.6,0c-5.4,0-5.4,0-5.4,5.5c0,15.1,0,30.2,0,45.3
	c0,4.7,0.1,4.8,4.9,4.8c12.9,0,25.7,0,38.6,0c4.4,0,4.6,0.2,4.6,4.4c0,40.8,0,81.7,0,122.5c0,4.1-0.2,4.3-4.2,3.6
	c-33.3-6-63-20.1-88.6-42.2c-36.5-31.6-58.4-71.4-64.4-119.3c-6.8-54.1,7.2-102.7,41.8-144.8C83.9,43.2,122.4,21,168.7,13.5
	C252.3,0,331.8,41.9,368.8,116.1C379.9,138.3,386.5,161.9,387.8,186.7z"/>
</svg>
