<?xml version="1.0" encoding="utf-8"?>
<!-- Generator: Adobe Illustrator 24.3.0, SVG Export Plug-In . SVG Version: 6.00 Build 0)  -->
<svg version="1.0" id="Layer_1" xmlns="http://www.w3.org/2000/svg" xmlns:xlink="http://www.w3.org/1999/xlink" x="0px" y="0px"
	 viewBox="0 0 400 400" style="enable-background:new 0 0 400 400;" xml:space="preserve">
<style type="text/css">
	.st0{fill:#FFFFFF;}
</style>
<path class="st0" d="M199.9,10.5C94,10.2,10.9,95.5,10.4,199C11,305.3,95.5,385.8,195.3,388c105.2,2.2,192.3-83,192.7-187.6
	C388.4,95.9,304.6,10.9,199.9,10.5z M299.1,143.4c-20.2,37.3-40.5,74.6-60.7,112c-1.5,2.7-3.1,3.8-6.3,3.8
	c-21.6-0.2-43.2-0.1-64.8-0.1c-21.9,0-43.8,0-65.7,0c-4,0-4.1-0.1-2.1-3.7c20.4-37.6,40.8-75.2,61.1-112.8c1.2-2.3,2.7-3.1,5.4-3.1
	c43.6,0.1,87.2,0,130.8,0.1C300.9,139.5,301,139.8,299.1,143.4z"/>
</svg>
