<?xml version="1.0" encoding="utf-8"?>
<!-- Generator: Adobe Illustrator 24.3.0, SVG Export Plug-In . SVG Version: 6.00 Build 0)  -->
<svg version="1.1" id="Layer_1" xmlns="http://www.w3.org/2000/svg" xmlns:xlink="http://www.w3.org/1999/xlink" x="0px" y="0px"
	 viewBox="0 0 399.6 53.1" style="enable-background:new 0 0 399.6 53.1;" xml:space="preserve">
<style type="text/css">
	.st0{fill:#FFFFFF;}
</style>
<path class="st0" d="M89.3,42.7c0-12,0-24,0-36c0-2.4-0.7-4.6-3.1-5.7c-2.5-1.1-4.9-0.6-6.9,1.4c-4.3,4.2-8.8,8.3-13.1,12.5
	c-5.9,5.7-20,19.4-20,19.4s0-19.3,0-27.4c0-2.6-0.8-4.9-3.4-6c-2.6-1-4.8-0.4-6.9,1.7c-11.5,11.4-23,22.8-34.5,34.1
	C0.7,37.4,0,37.9,0,38.7c0,4.5,0,14.3,0,14.3l34.8-34.3c0,0,0,16.5,0,23.2c0,1.9,0.1,3.9,0.2,5.8c0.1,2.3,1.3,3.9,3.4,4.7
	c2.3,0.9,4.4,0.4,6.2-1.3c10.3-9.9,33.3-32.2,33.3-32.2s0,13.6,0,23.6l0,0v0c0,2.5,0,4.8,0,6.6c0,0.2,0,0.4,0,0.6v2.1H86
	c0.3,0,0.6,0,0.9,0c0.2,0,0.4,0,0.6,0h1.9L89.3,42.7L89.3,42.7z"/>
<polygon class="st0" points="159.3,0.5 99.9,0.5 99.9,11.1 124.2,11.1 124.2,51.9 135.1,51.9 135.1,11.1 159.3,11.1 "/>
<path class="st0" d="M223.4,41.6c-3.6-0.1-7.2-0.3-10.7-1.3c-5-1.4-9.9-2.9-13.8-6.7c-0.5-0.5-1.8-2.2-1.8-2.2s14.1-0.1,19.7,0
	c3,0.1,5.9-0.5,8.5-1.8c6-2.9,9.3-9.2,8.9-14.7c-0.7-8.7-7.7-14.8-16.4-14.8c-5.3,0-26.6,0-32,0c-9.6,0-17,7.1-17.3,16.7
	c-0.1,2.1,0,35.2,0,35.2h10.6c0,0,0-24.8,0-32.2c0-5.7,2.9-8.7,8.5-9.1c1.9-0.1,22.2,0.1,30.4,0.2c3,0,4.9,1.7,5,4.2
	c0.1,3.3-1.2,4.9-4.6,5.2c-0.6,0.1-19.8,0-28.7,0.1c-3.1,0-5.2,1.7-5.6,4.4c-0.3,2.4-0.1,4.8,0.8,7c2.9,7,8,12,14.7,15.4
	c5.6,2.8,11.7,3.9,17.8,4.8c4.6,0.7,16.9,0.5,16.9,0.5l0-10.9C234.4,41.6,226.3,41.7,223.4,41.6z"/>
<path class="st0" d="M309.6,21.3c-3-1.7-6.3-2.1-9.6-2.1c-13-0.1-26.1,0-39.1,0c-3.2,0-5-1.6-5-4.3c0-2.5,2-4.2,5-4.2
	c5.4,0,55.7,0,55.7,0V0c0,0-47.4,0.2-55.9,0c-8.7-0.1-16,6.7-15.3,16.4c0.5,6.8,6.5,13.1,13.3,13.2c10.1,0.2,38.8,0,43,0.3
	c3.8,0.2,5.9,2.7,5.7,6.2c-0.2,3.4-2.5,5.4-6.2,5.5c-2.2,0.1-53.3,0-53.3,0v10.9c0,0,38.1,0,52.6,0c1.5,0,2.9-0.2,4.3-0.5
	c6.9-1.5,12.3-7.1,13.2-13.7C319.2,31.4,315.9,25,309.6,21.3z"/>
<path class="st0" d="M390.9,21.3c-3-1.7-6.3-2.1-9.6-2.1c-13-0.1-26.1,0-39.1,0c-3.2,0-5-1.6-5-4.3c0-2.5,2-4.2,5-4.2
	c5.4,0,55.7,0,55.7,0V0c0,0-47.4,0.2-55.9,0c-8.7-0.1-16,6.7-15.3,16.4c0.5,6.8,6.5,13.1,13.3,13.2c10.1,0.2,38.8,0,43,0.3
	c3.8,0.2,5.9,2.7,5.7,6.2c-0.2,3.4-2.5,5.4-6.2,5.5c-2.2,0.1-53.3,0-53.3,0v10.9c0,0,38.1,0,52.6,0c1.5,0,2.9-0.2,4.3-0.5
	c6.9-1.5,12.3-7.1,13.2-13.7C400.5,31.4,397.2,25,390.9,21.3z"/>
</svg>
