<?xml version="1.0" encoding="utf-8"?>
<!-- Generator: Adobe Illustrator 24.3.0, SVG Export Plug-In . SVG Version: 6.00 Build 0)  -->
<svg version="1.1" id="Layer_1" xmlns="http://www.w3.org/2000/svg" xmlns:xlink="http://www.w3.org/1999/xlink" x="0px" y="0px"
	 viewBox="0 0 100 100" style="enable-background:new 0 0 100 100;" xml:space="preserve">
<style type="text/css">
	.st0{fill:#FFFFFF;}
</style>
<g>
	<path class="st0" d="M40.9,78h-7c-2.2,0-3.9-1.8-3.9-3.9V24c0-2.2,1.8-3.9,3.9-3.9h7c2.2,0,3.9,1.8,3.9,3.9v50
		C44.8,76.2,43.1,78,40.9,78z"/>
	<path class="st0" d="M66.1,78h-7c-2.2,0-3.9-1.8-3.9-3.9V24c0-2.2,1.8-3.9,3.9-3.9h7c2.2,0,3.9,1.8,3.9,3.9v50
		C70.1,76.2,68.3,78,66.1,78z"/>
</g>
</svg>
