<?xml version="1.0" encoding="utf-8"?>
<!-- Generator: Adobe Illustrator 24.3.0, SVG Export Plug-In . SVG Version: 6.00 Build 0)  -->
<svg version="1.1" id="Layer_1" xmlns="http://www.w3.org/2000/svg" xmlns:xlink="http://www.w3.org/1999/xlink" x="0px" y="0px"
	 viewBox="0 0 100 100" style="enable-background:new 0 0 100 100;" xml:space="preserve">
<style type="text/css">
	.st0{fill:#FFFFFF;}
</style>
<path class="st0" d="M25.3,48.3c0-9.4,0-18.7,0-28.1c0-0.3,0-0.6,0-0.9c0.1-1.7,1-2.3,2.5-1.5c1.9,1,3.9,2.1,5.8,3.2
	c15.3,8.5,30.5,17,45.8,25.6c0.2,0.1,0.4,0.2,0.6,0.3c1.6,1,1.7,1.9,0,2.9c-5.8,3.3-11.6,6.5-17.4,9.7C51.3,65.8,40,72,28.8,78.3
	c-0.5,0.3-1,0.5-1.5,0.8c-1.1,0.5-1.8,0.1-2-1.1c-0.1-0.4,0-0.8,0-1.3C25.3,67.2,25.3,57.7,25.3,48.3z"/>
</svg>
