<svg xmlns="http://www.w3.org/2000/svg" width="234" height="70.899" viewBox="0 0 234 70.899"><defs><style>.a{fill:#fff;}</style></defs><path class="a" d="M303.188,520.572c.036-19.667,15.48-33.62,31-35.042,25.8-2.364,40.439,17.359,40.022,35.683-.453,19.911-15.489,34.908-35.367,35.022C319.006,556.349,303.147,540.994,303.188,520.572Zm43.274.932c-2,0-4.008-.018-6.011,0-2.118.024-2.679.626-2.837,2.956-.179,2.634.493,3.689,2.476,4.045,1.185.213,2.95-.564,3.408.9.442,1.411-1.3,2.12-2.123,3.114-.043.051-.094.1-.141.142-2.109,2.1-3.118,2.2-5.168.053-4.194-4.383-6.383-9.811-7.38-15.674-.547-3.221.867-4.8,3.787-6.192,2.6-1.243,5.252-.537,7.87-.794a9.486,9.486,0,0,1,5.4,1.118c1.387.732,2.723,1.664,2.712,3.617-.02,3.625.293,3.895,3.854,3.9a13.083,13.083,0,0,1,1.6.009c2.127.267,3.066-.779,3.293-2.787.127-1.118.426-2.216.639-3.325a9.707,9.707,0,0,0-2.984-9.63c-2.9-2.654-6.491-3.476-10.2-4.174a31.918,31.918,0,0,0-18.927,2.023,10.185,10.185,0,0,0-6.256,11.494,57.763,57.763,0,0,0,4.072,14.138c2.358,5.379,4.971,10.644,9.262,14.827,5.125,5,7.975,4.131,12.017-.211a49.622,49.622,0,0,0,9.786-16.631c.728-1.936-.009-2.879-2.139-2.913C350.47,521.479,348.465,521.5,346.462,521.5Z" transform="translate(-303.188 -485.336)"/><path class="a" d="M833.326,566.984c.107-3.061-.128-6.8.161-10.531a8.481,8.481,0,0,1,7.581-7.74,38.587,38.587,0,0,1,5.972.069c3.789.35,6.431,3.118,7.209,6.94a26.1,26.1,0,0,1-.108,10.115c-.98,5.251-7.034,8.023-12.941,6.021-2.722-.922-2.774-.9-2.807,2.095-.015,1.4.037,2.8.161,4.194a2.391,2.391,0,0,1-1.912,2.843,2.235,2.235,0,0,1-3.037-1.754,8.775,8.775,0,0,1-.277-2.372C833.324,573.795,833.326,570.725,833.326,566.984Zm15.709-6.429h.018c0-1.133-.066-2.272.017-3.4a2.83,2.83,0,0,0-1.512-2.836,7.235,7.235,0,0,0-7.064-.1c-1.966,1-2.108,2.917-2.116,4.834,0,1.133-.032,2.268.012,3.4.135,3.456,2.057,5.249,5.515,5.184,3.578-.067,5.143-1.68,5.13-5.283C849.033,561.755,849.035,561.155,849.035,560.555Z" transform="translate(-620.696 -523.244)"/><path class="a" d="M519.433,551.854c0,2.263.14,4.52-.618,6.739a4.327,4.327,0,0,1-3.413,3.215c-4.738,1-9.4,1.09-13.828-1.156-2.686-1.361-3.974-3.68-4.5-6.654-.785-4.412-.343-8.781.026-13.16.431-5.111,5.256-9.233,10.941-8.892,2.9.174,5.867-.442,8.693.842a2.845,2.845,0,0,1,1.937,2.523c.159,2.038-.877,2.945-2.8,2.3a18.339,18.339,0,0,0-8.273-.706c-2.877.363-4.651,1.956-5.041,4.789a43.548,43.548,0,0,0-.017,11.175,3.911,3.911,0,0,0,1.992,3.075,11.769,11.769,0,0,0,8.14,1.18c1.472-.268,1.708-1.59,1.752-2.808.08-2.2.055-4.408.041-6.612-.01-1.5.522-2.418,2.179-2.478,1.73-.062,2.678.728,2.776,2.42C519.5,549.045,519.433,550.452,519.433,551.854Z" transform="translate(-419.046 -513.24)"/><path class="a" d="M592.415,547.121a31.009,31.009,0,0,1,.481-6.96,10.577,10.577,0,0,1,10.853-8.172c3.036.134,6.127-.463,9.067.894a2.931,2.931,0,0,1,1.544,3.761c-.494,1.807-1.684,1.343-2.84.938a17.32,17.32,0,0,0-8.674-.572,4.961,4.961,0,0,0-4.237,3.533,24.664,24.664,0,0,0-.17,12.842,4.275,4.275,0,0,0,2.99,3.207,15.764,15.764,0,0,0,6.5.706c1.523-.127,1.991-1.137,2-2.495.016-2.271,0-4.542.057-6.812a2.439,2.439,0,0,1,1.712-2.642c1.761-.5,3.141.34,3.221,2.209a54.458,54.458,0,0,1-.221,10.6,4.053,4.053,0,0,1-2.915,3.463,20.835,20.835,0,0,1-13.516-.42c-4.564-1.624-5.363-5.729-5.825-9.873A38.272,38.272,0,0,1,592.415,547.121Z" transform="translate(-476.38 -513.266)"/><path class="a" d="M731.287,560.476c0,3.092-.115,6.124-2.277,8.677-2.468,2.914-5.828,3.366-9.262,3.27a15.489,15.489,0,0,1-4.641-1.087,6.519,6.519,0,0,1-4.381-4.313,21.885,21.885,0,0,1,.26-13.932,5.935,5.935,0,0,1,3.542-3.374,16.274,16.274,0,0,1,11.169-.424c4.291,1.285,5.216,4.757,5.578,8.579C731.357,558.732,731.287,559.607,731.287,560.476Zm-16.277-.242c0,.466,0,.932,0,1.4.051,4.821,3.1,6.95,7.749,5.452,1.488-.479,2.725-1.21,2.947-2.875a26.312,26.312,0,0,0,.023-7.359,3.314,3.314,0,0,0-2.258-3.02c-4.268-1.136-8.826-.7-8.463,5.8C715.02,559.834,715.011,560.034,715.011,560.234Z" transform="translate(-546.663 -523.17)"/><path class="a" d="M787.382,557.809c0-1.935.081-3.875-.028-5.8-.077-1.363.389-2.059,1.757-2.046,1.288.012,2.946-.735,3.146,1.57a108.547,108.547,0,0,1,.038,13.988,7.767,7.767,0,0,1-4.105,6.624,9.858,9.858,0,0,1-5.435,1.074c-3.63-.018-7.2-.546-9.288-4.261a10.462,10.462,0,0,1-1.09-5.013c-.12-3.868-.068-7.743-.026-11.614.014-1.31.142-2.584,2.068-2.447,2.194.156,2.909.67,2.931,2.634.043,3.805-.052,7.613.061,11.415.085,2.862,2.06,4.485,5.086,4.441,3.125-.044,4.851-1.62,4.946-4.554.037-1.134.01-2.27.011-3.4q0-1.3,0-2.6Z" transform="translate(-584.149 -523.976)"/><path class="a" d="M666.118,572.328a25.737,25.737,0,0,1-5.941-.631,2.806,2.806,0,0,1-2.131-3.687c.535-1.674,1.826-1.314,3.135-1.072a20.49,20.49,0,0,0,6.336.651c1.084-.137,2.3-.283,2.543-1.526.247-1.268-.844-1.833-1.838-2.285q-2.731-1.242-5.478-2.445a7.073,7.073,0,0,1-4.478-8.225c.46-2.463,3.314-4.239,6.875-4.448a17.511,17.511,0,0,1,7.291.6c1.577.585,2.56,1.667,2.04,3.37-.51,1.668-1.9,1.384-3.314,1.189-1.884-.26-3.745-1.2-5.7-.45-.786.3-1.839.389-1.945,1.464-.1,1.04.776,1.475,1.567,1.851,2.167,1.029,4.363,2,6.517,3.051a6.378,6.378,0,0,1,3.761,6.83c-.443,3.247-1.78,4.6-5.255,5.379A17.141,17.141,0,0,1,666.118,572.328Z" transform="translate(-515.623 -523.199)"/><path class="a" d="M571.393,547.168c0,4.2-.093,8.407.046,12.6.056,1.7-.8,2.053-2.108,2.233-1.344.185-2.4-.127-2.792-1.588a4.686,4.686,0,0,1-.181-1.181c-.011-8-.051-16.008.014-24.011.021-2.579,1.793-3.59,4.047-2.552a1.576,1.576,0,0,1,1.042,1.691c-.055,4.268-.024,8.536-.024,12.8Z" transform="translate(-460.792 -513.446)"/></svg>