<svg xmlns="http://www.w3.org/2000/svg" width="234.094" height="26.731" viewBox="0 0 234.094 26.731"><defs><style>.a{fill:#fff;}</style></defs><g transform="translate(0 0)"><path class="a" d="M822.1,363.211c-.713-.461-1.553-.278-2.328-.428-5.3-1.025-8.562-4.745-8.627-10.091-.061-4.958,0-9.916-.025-14.874,0-.8.141-1.179,1.1-1.174q11.288.063,22.576,0c1.027-.006,1.151.4,1.145,1.254-.033,5,0,10.006-.02,15.009-.021,5.567-3.554,9.43-9.162,10.062-.3.034-.643-.052-.874.242Zm4.046-26.167a5.2,5.2,0,0,0-.151.743c-.006,7.72.01,15.441-.026,23.161-.005,1.126.631.952,1.306.854a8.709,8.709,0,0,0,7.536-8.486c.085-1.915,0-3.838.042-5.756a2.088,2.088,0,0,0-.631-1.543c-1.685-1.855-3.349-3.729-5.024-5.593C828.232,339.345,827.258,338.272,826.148,337.043Z" transform="translate(-659.609 -336.48)"/><path class="a" d="M496.857,339.349v3.336c0,6.261-.024,12.522.024,18.783.008,1.013-.276,1.278-1.283,1.264q-6.225-.084-12.451,0c-.969.012-1.192-.285-1.188-1.207q.054-11.806,0-23.613c-.005-.995.244-1.28,1.269-1.272,5.91.05,11.82.022,17.73.025a13.385,13.385,0,0,1,12.688,9.852,12.9,12.9,0,0,1-6.36,14.518,13.881,13.881,0,0,1-6.736,1.7c-.906,0-1.131-.331-1.212-1.152-.72-7.243-1.479-14.482-2.231-21.722A2.953,2.953,0,0,0,496.857,339.349Z" transform="translate(-419.667 -336.476)"/><path class="a" d="M914.418,348.943l9.1,13.51c-.377.392-.757.249-1.089.25-3.068.013-6.135-.006-9.2.018-.691.005-1.068-.1-1.065-.929q.038-12.072,0-24.145c0-.758.246-1,1.014-.995,3.383.034,6.767.047,10.149-.009a2,2,0,0,1,1.645.96q5.293,6.093,10.58,12.192a1.54,1.54,0,0,0,.8.546l-9.211-13.352c.122-.39.379-.318.583-.319,3.2-.005,6.406.029,9.608-.025.918-.016,1.14.3,1.137,1.15q-.037,11.871.005,23.743c0,.954-.3,1.206-1.232,1.192q-4.8-.074-9.607,0a2.223,2.223,0,0,1-1.922-.933c-3.668-4.354-7.37-8.681-11.061-13.016Z" transform="translate(-733.266 -336.479)"/><path class="a" d="M1021.405,348.986l9.038,13.415c-.224.464-.585.307-.864.308-3.068.013-6.136-.014-9.2.022-.816.01-1.192-.129-1.187-1.077q.056-11.94,0-23.882c0-.9.287-1.13,1.155-1.118q4.8.066,9.609,0a2.266,2.266,0,0,1,1.954.89c3.442,4.02,6.927,8,10.4,12a2.237,2.237,0,0,0,.971.735l-9.377-13.6c3.786,0,7.286,0,10.785,0,.8,0,.655.583.658,1.046.013,1.789.006,3.578.006,5.367,0,6.127-.023,12.254.022,18.381.008,1-.274,1.292-1.287,1.271q-4.735-.1-9.474,0a2.239,2.239,0,0,1-1.931-.937q-5.5-6.53-11.055-13.021Z" transform="translate(-811.279 -336.486)"/><path class="a" d="M603.971,339.628c2.09,3.688,4.16,7.388,6.286,11.056a5.355,5.355,0,0,1,.757,2.911c-.054,2.77-.045,5.543,0,8.314.013.829-.162,1.167-1.1,1.156q-6.358-.074-12.717,0c-.94.011-1.111-.342-1.1-1.167.043-2.637,0-5.275.028-7.912a3.835,3.835,0,0,0-.542-2.023c-2.587-4.551-5.143-9.119-7.708-13.682-.193-.344-.372-.7-.629-1.181h32.794c.156.42-.219.706-.411,1.026q-3.254,5.406-6.54,10.793c-.745,1.225-.75,1.22-1.659.026q-3.625-4.755-7.251-9.509Z" transform="translate(-496.421 -336.812)"/><path class="a" d="M267.186,361.844l13.475-11.882c.412.2.287.511.288.75.01,3.621-.016,7.242.024,10.863.01.853-.213,1.148-1.121,1.144q-13.326-.048-26.653,0c-.865,0-1.045-.288-1.042-1.079q.038-11.936,0-23.871c0-.875.246-1.14,1.135-1.131,4.194.042,8.389.059,12.582-.008,1.108-.018,1.34.353,1.334,1.367-.037,7.331-.02,14.663-.02,21.994Z" transform="translate(-252.155 -336.468)"/><path class="a" d="M709.94,336.978a39.339,39.339,0,0,0-.021,5.229c.025,6.435-.014,12.871.035,19.306.008,1.057-.286,1.35-1.353,1.351-6.251.011-11.548-3.67-13.253-9.3a13.035,13.035,0,0,1,5.443-14.776,13.8,13.8,0,0,1,7.306-2.1c4.236-.085,8.475-.026,12.713-.02.511,0,1.128-.17,1.124.714-.017,3.338-.007,6.676-.007,10.346-2.147-1.932-4.058-3.656-5.974-5.375S712.091,338.9,709.94,336.978Z" transform="translate(-574.806 -336.483)"/><path class="a" d="M395.554,362.27h-5.238c-3.426,0-6.854-.063-10.277.036a1.764,1.764,0,0,1-1.951-1.336c-1.446-3.5-2.951-6.986-4.667-10.417.3,1.238.588,2.48.9,3.715.584,2.289,1.17,4.578,1.782,6.86.207.771.212,1.187-.841,1.165-3.228-.066-6.458-.024-9.918-.024,4.543-8.864,9.106-17.453,13.946-26.232Z" transform="translate(-334.666 -336.038)"/><path class="a" d="M769.552,396.52c-.9-.64-1.828-1.244-2.688-1.931a1.275,1.275,0,0,0-1.772-.059,14.151,14.151,0,0,1-6.059,2.1c-.851.118-1.2-.139-1.189-1.07.047-3.84.035-7.682.006-11.522-.006-.734.19-1.022.98-1.014,3.334.036,6.668.016,10,.014.508,0,.993-.054.988.711-.029,4.152-.031,8.3-.049,12.457C769.771,396.273,769.682,396.339,769.552,396.52Z" transform="translate(-620.774 -370.289)"/></g></svg>