<svg xmlns="http://www.w3.org/2000/svg" width="234" height="35.707" viewBox="0 0 234 35.707"><defs><style>.a{fill:#fff;}</style></defs><path class="a" d="M40.884,29.352A17.542,17.542,0,1,1,23.342,11.69,17.6,17.6,0,0,1,40.884,29.352" transform="translate(-5.8 -11.308)"/><path class="a" d="M640.9,45.706c0,9.183-3.927,16.626-8.771,16.626s-8.771-7.446-8.771-16.626,3.927-16.626,8.771-16.626,8.771,7.446,8.771,16.626" transform="translate(-586.574 -27.662)"/><path class="a" d="M952.59,73.016c0,8.227-1.381,14.9-3.085,14.9s-3.085-6.671-3.085-14.9,1.381-14.9,3.086-14.9,3.084,6.67,3.084,14.9" transform="translate(-890.391 -54.973)"/><path class="a" d="M1243.757,7.193l.049-.011V6.8h-9.976l-9.263,21.772L1215.3,6.8h-10.75v.378l.048.011c1.821.411,2.745,1.024,2.745,3.234V36.306c0,2.211-.928,2.823-2.749,3.234l-.048.011v.379h7.294v-.378l-.048-.011c-1.821-.411-2.745-1.024-2.745-3.234V11.929l11.9,28h.675l12.246-28.783v25.8c-.156,1.746-1.072,2.285-2.721,2.657l-.049.011v.375h12.705v-.375l-.049-.011c-1.651-.372-2.589-.911-2.745-2.657L1241,10.428h.008c0-2.211.924-2.823,2.745-3.234m5.8,17.143c.208-4.65,1.878-8.006,4.68-8.064a3.059,3.059,0,0,1,2.153.843c1.2,1.162,1.76,3.591,1.673,7.22Zm-.126,1.31h14.891v-.063c-.042-3.556-1.072-6.321-3.058-8.22a10.055,10.055,0,0,0-6.928-2.544h-.06a10.307,10.307,0,0,0-4.294.945,10.027,10.027,0,0,0-3.6,2.841,14.118,14.118,0,0,0-2.851,7.8c-.008.092-.014.183-.021.275s-.011.174-.015.261c-.008.164-.015.328-.018.493-.006.264-.008.531,0,.8.161,6.932,3.906,12.471,10.556,12.471,5.838,0,9.237-4.267,10.085-10l-.428-.151c-1.489,3.078-4.164,4.944-7.208,4.716-4.155-.311-7.339-4.524-7.05-9.628m31.73,9.392a2.914,2.914,0,0,1-2.873,1.8c-1.366,0-2.614-.938-3.5-2.641a16.565,16.565,0,0,1-1.455-7.476c0-6.374,1.983-10.5,5.051-10.5a2.882,2.882,0,0,1,2.779,1.749Zm9.878,4.544c-1.821-.431-2.745-1.072-2.745-3.4V5.28l-11.063,3.259v.4l.068-.005a4.126,4.126,0,0,1,3.162.643,2.634,2.634,0,0,1,.7,2.041v4.238a7.154,7.154,0,0,0-3.962-1.035,10.705,10.705,0,0,0-8.215,3.786,15.118,15.118,0,0,0-3.354,10.055c0,7.2,3.545,12.045,8.823,12.045a6.981,6.981,0,0,0,6.708-4.545v3.83h9.927v-.4Zm9.488-30.1a3.859,3.859,0,0,0-3.946-3.946,3.946,3.946,0,1,0,0,7.891,3.859,3.859,0,0,0,3.946-3.946m2.612,30.1c-1.821-.431-2.745-1.072-2.745-3.4h-.008v-21.3l-9.927,2.85v.387l.06.005c2.148.191,2.736.931,2.736,3.441V39.991h9.936v-.4Zm25.438,0c-1.821-.431-2.745-1.072-2.745-3.4v-21.3l-9.452,2.756v.388l.056.006c1.756.185,2.263.967,2.263,3.488V34.993a3.407,3.407,0,0,1-3.015,1.893c-2.158,0-3.346-1.458-3.346-4.1V14.893l-9.927,2.85v.387l.06.005c2.148.191,2.736.93,2.736,3.441V32.969a12.773,12.773,0,0,0,.207,2.372l.179.777c.84,3.012,3.043,4.587,6.493,4.587a7.123,7.123,0,0,0,6.612-4.64V40h9.927v-.4Zm38.565.406v-.4l-.048-.011c-1.976-.456-2.746-1.315-2.746-3.063V22.032c0-4.517-2.537-7.213-6.786-7.213a6.974,6.974,0,0,0-6.715,4.578c-.8-2.954-3.1-4.578-6.5-4.578a6.455,6.455,0,0,0-6.329,4.237V14.894l-9.927,2.734v.39l.06.005c2.122.188,2.736.949,2.736,3.4V39.991h9.262v-.4l-.049-.012c-1.576-.37-2.085-1.046-2.085-2.779V20.2a3.127,3.127,0,0,1,2.919-2.128c2.063,0,3.109,1.43,3.109,4.246V39.991h9.265v-.4l-.049-.012c-1.576-.37-2.085-1.046-2.085-2.779V22.03a9.565,9.565,0,0,0-.131-1.649,3.314,3.314,0,0,1,3.06-2.311c2.093,0,3.109,1.388,3.109,4.246V39.991Z" transform="translate(-1133.145 -5.28)"/></svg>