<svg xmlns="http://www.w3.org/2000/svg" width="86.057" height="84.503" viewBox="0 0 86.057 84.503"><defs><style>.a{fill:#fff;}</style></defs><g transform="translate(0)"><path class="a" d="M466.922,612.256c-9.056,0-18.128.322-27.166-.088-9.5-.431-16.027-7.71-16.163-17.226-.067-4.7-.013-9.394-.013-14.091q0-17.313,0-34.626c.009-10.871,7.063-18.18,17.908-18.247q25.162-.155,50.326,0c10.686.07,17.781,7.444,17.79,18.18q.021,23.956,0,47.912c-.01,10.925-7.2,18.21-18.125,18.3-8.186.065-16.373.013-24.559.013Zm-.473-2.039q12.281,0,24.561,0c10.025-.018,16.389-6.35,16.4-16.322q.015-23.756,0-47.512c-.008-9.853-6.363-16.3-16.22-16.333q-24.662-.076-49.323,0c-9.74.035-16.077,6.5-16.086,16.257q-.023,23.756,0,47.513c.008,10.031,6.315,16.368,16.315,16.394C450.209,610.233,458.329,610.217,466.449,610.218Z" transform="translate(-423.559 -527.899)"/><path class="a" d="M479.549,576.672q-2.8,10.878-5.6,21.755c-.653,2.533-1.264,5.078-1.979,7.594-.894,3.143-2.41,4.376-5.187,4.379-2.743,0-4.379-1.231-5.226-4.363-1.854-6.856-3.584-13.745-5.361-20.622-.793-3.07-1.578-6.142-2.439-9.5a3.327,3.327,0,0,0-.4,2.28q-.02,13.785-.006,27.571c0,1.948-.519,3.622-2.511,4.383a3.9,3.9,0,0,1-5.5-3.469c-.167-2.4-.078-4.827-.079-7.241q-.008-14.188,0-28.376c0-3.791,1.274-5.055,5.083-5.1,1.409-.018,2.818-.015,4.226,0,3.217.033,4.172.666,5.045,3.777,2.117,7.551,4.142,15.127,6.227,22.687a5.271,5.271,0,0,0,.915,2.387,4.206,4.206,0,0,0,.778-1.95q3-10.955,5.99-21.911c1.248-4.541,1.86-4.993,6.575-4.994,1.073,0,2.147-.019,3.22,0,3.632.078,4.97,1.421,4.973,5.044q.015,15.6,0,31.194c0,1.274.04,2.551-.012,3.823-.112,2.707-1.444,4.227-3.758,4.367-2.49.151-4.036-1.172-4.377-3.931a34.881,34.881,0,0,1-.135-4.217q-.016-11.672,0-23.345v-2.193Z" transform="translate(-436.464 -550.557)"/><path class="a" d="M575.982,621.548c0-2.187-.01-4.373,0-6.56.019-3.621,0-7.243.108-10.861a2.375,2.375,0,0,1,2.542-2.53,2.5,2.5,0,0,1,2.812,2.487,13.1,13.1,0,0,1,.082,1.805c.005,6.976.021,13.952-.008,20.927-.008,1.851.254,3.916-2.115,4.7-1.914.633-3.624-.109-5.228-2.43-3.469-5.019-6.853-10.1-10.276-15.148-.371-.547-.765-1.079-1.155-1.629-.8.441-.489,1.121-.492,1.653-.028,4.494-.013,8.988-.02,13.482a10.709,10.709,0,0,1-.091,1.8,2.569,2.569,0,0,1-2.935,2.394,2.472,2.472,0,0,1-2.512-2.608c-.079-1.942-.043-3.889-.044-5.834q-.006-8.25,0-16.5c0-3.275.546-4.424,2.353-4.977,1.984-.607,3.227.106,4.979,2.756q5.327,8.053,10.693,16.08c.253.379.533.741.8,1.111Z" transform="translate(-502.806 -571.737)"/><path class="a" d="M609.041,689.666c.9-.359.3-2.274,1.585-1.895,1.178.348.421,1.734.581,2.646a5.161,5.161,0,0,1-.123,1.262c-1.042-.432-.33-1.422-.879-1.853-.582.46-.21,1.683-1.061,1.733-1.048.061-.419-1.458-1.29-1.769-.423.5.159,1.307-.487,1.745-.568-.3-.463-.841-.4-1.26.132-.863-.574-2.184.548-2.5C608.853,687.4,608.324,689.176,609.041,689.666Z" transform="translate(-532.712 -623.067)"/><path class="a" d="M448.715,691.578c-.734-.381-.278-1.077-.625-1.485a5.93,5.93,0,0,1-2.321-.309c-.555.452.076,1.325-.606,1.723-.549-.4-.416-.987-.362-1.477.088-.8-.514-2.008.539-2.292,1.266-.341.789,1.29,1.492,1.766.061-.018.2-.018.28-.089.536-.5.184-1.934,1.3-1.681,1.144.259.486,1.458.59,2.236A1.808,1.808,0,0,1,448.715,691.578Z" transform="translate(-436.152 -623.049)"/><path class="a" d="M541.4,687.322c1.327.641.822,1.8,1.608,2.218.744-.495.3-2.051,1.32-1.963.92.08.66,1.436,1.1,2.166.9-.439.409-1.633,1.106-2.135a.381.381,0,0,1,.372.572c-.432,1.059-.045,2.833-1.278,3.062-1.013.188-.5-1.735-1.345-2.349-.909.57-.32,2.725-1.5,2.3C541.666,690.8,541.943,688.9,541.4,687.322Z" transform="translate(-493.729 -622.83)"/><path class="a" d="M518.611,689.8l.2-1.918c.879,1.007.657,2.17.57,3.26-.057.722-.6.56-1,.169-.563-.551-.742-1.421-1.505-1.856-.678.541.033,1.47-1.011,2.357a26.348,26.348,0,0,1,.04-3.6c.112-.756.632-.4,1.008-.048C517.434,688.652,517.643,689.446,518.611,689.8Z" transform="translate(-478.499 -623.091)"/><path class="a" d="M594.71,687.519a1.951,1.951,0,0,1,1.965,2.254c-.09,1.347-.944,1.844-2.17,1.818a1.839,1.839,0,0,1-1.99-2.2C592.6,688.085,593.461,687.568,594.71,687.519Zm1.142,1.884a1.168,1.168,0,0,0-1.223-1.138,1.346,1.346,0,0,0-.079,2.684C595.434,690.964,595.816,690.377,595.852,689.4Z" transform="translate(-524.162 -622.947)"/><path class="a" d="M532.711,687.989l-2.117.309c.288,1.25,1.487.275,1.948.954-.324.981-2.032-.225-1.927,1.073.094,1.166,1.615.127,2.159,1.049-1.058.079-2.365.676-2.915-.371a3.778,3.778,0,0,1,.022-3.092C530.422,686.908,531.7,687.5,532.711,687.989Z" transform="translate(-486.666 -622.854)"/><path class="a" d="M560.208,688.614c.337,1.143,2.639.313,2.259,2.135-.116.557-.694.786-1.253.843a1.7,1.7,0,0,1-2.007-1.073c.622-.384.787.171,1.107.322.468.221.995.3,1.211-.215.285-.683-.4-.695-.8-.825-.638-.206-1.357-.333-1.41-1.176-.034-.544.4-.836.862-.966a1.659,1.659,0,0,1,2.206.884C561.594,688.942,560.875,687.63,560.208,688.614Z" transform="translate(-504.332 -622.96)"/><path class="a" d="M474.359,690.206c.471.283.735.453,1.009.6.46.253,1.013.3,1.219-.2.274-.67-.421-.667-.82-.82-.611-.233-1.381-.3-1.4-1.188-.013-.564.436-.827.888-.959a1.608,1.608,0,0,1,2.148.854c-.789.409-1.445-.842-2.125.093-.047.642.587.519.964.682.65.281,1.627.349,1.282,1.4-.3.91-1.166,1.033-2.015.892C474.976,691.472,474.47,691.268,474.359,690.206Z" transform="translate(-453.808 -622.951)"/><path class="a" d="M460.415,688c.82.594.5,1.358.581,2.051s.318,1.187,1.079,1.14c.64-.04.888-.518.926-1.1a8.965,8.965,0,0,1,.295-2.155,2.837,2.837,0,0,1,.118,3.306,1.683,1.683,0,0,1-2.339.419C459.51,690.734,460.309,689.265,460.415,688Z" transform="translate(-445.328 -623.19)"/><path class="a" d="M497.826,690.071c-.473,1.5-1.336,1.7-2.291,1.487a1.932,1.932,0,0,1-1.585-2.041,1.849,1.849,0,0,1,1.509-1.882,1.8,1.8,0,0,1,2.345,1.354c-1.073-.347-2-1.322-2.773-.187a1.386,1.386,0,0,0,.149,1.844C496.086,691.54,496.73,690.555,497.826,690.071Z" transform="translate(-465.474 -622.965)"/><path class="a" d="M582.133,688.792c-.887-.316-1.729-1.081-2.507-.01a1.374,1.374,0,0,0,.137,1.845c.9.9,1.551-.072,2.6-.559-.3,1.226-.916,1.571-1.835,1.528a1.935,1.935,0,0,1-1.95-1.688,1.822,1.822,0,0,1,1.272-2.219A1.543,1.543,0,0,1,582.133,688.792Z" transform="translate(-515.838 -622.95)"/><path class="a" d="M487.745,691.754a5.1,5.1,0,0,1-.19-3.6C488.362,689.31,488.017,690.539,487.745,691.754Z" transform="translate(-461.527 -623.327)"/></g></svg>