<svg xmlns="http://www.w3.org/2000/svg" width="234" height="58.021" viewBox="0 0 234 58.021"><defs><style>.a{fill:#fff;}</style></defs><path class="a" d="M927.144,347.173c6.07,2.385,8.566,6.7,8.364,13.244-.34,11.038-.054,22.094-.125,33.142-.048,7.511-4.476,11.466-12.627,11.48s-12.4-3.7-12.461-11.228c-.1-12.039-.061-24.079.015-36.119.031-4.937,2.085-7.232,6.741-8.4.643-.162,1.013-1.385,1.509-2.117Zm-1.882,28.744c0-5.516.132-11.038-.108-16.543-.05-1.142-1.476-2.227-2.268-3.337-.814,1.089-2.319,2.167-2.337,3.268q-.27,16.7-.011,33.4c.02,1.216,1.588,2.406,2.437,3.609.759-1.282,2.113-2.538,2.172-3.851C925.395,386.954,925.252,381.432,925.262,375.917Z" transform="translate(-767.828 -347.173)"/><path class="a" d="M1033.332,347.173c4.264,2.068,7.77,4.633,8.229,9.926.283,3.251-.635,5.129-4.067,5.6-1.814.247-3.585.808-5.9,1.35-.1-2.041.12-3.782-.361-5.306-.336-1.065-1.631-1.833-2.5-2.734-.752.867-2.044,1.667-2.165,2.613-.631,4.948-.45,9.658,5.132,12.164,8.265,3.711,11.315,10.11,9.854,18.9-.414,2.489.124,5.156-.427,7.6-1.305,5.784-7.3,8.695-15.238,7.74a10.565,10.565,0,0,1-9.6-10.247c-.013-.283,0-.567-.009-.85-.173-8.735.082-9,10.122-9.986a58.279,58.279,0,0,0,.114,8.335c.21,1.439,1.6,2.709,2.452,4.055.789-1.269,2.05-2.456,2.288-3.819,1.317-7.544-.866-13.378-8.215-17.141-2.606-1.334-5.893-3.977-6.273-6.419a40.6,40.6,0,0,1,.711-15.455c.6-2.47,4.173-4.233,6.4-6.316Z" transform="translate(-831.952 -347.173)"/><path class="a" d="M1109.264,405.177c-6.257.144-12.517.406-18.77.3-.887-.015-2.492-1.811-2.5-2.794q-.236-25.4.011-50.808c.011-1.008,1.847-2.823,2.883-2.859,6.118-.208,12.251,0,18.378.067v8.5l-10.868,1.231v10.436c2.9,2.7,8.571-2.616,9.342,3.975.207,1.775.318,4.923-.406,5.2-2.746,1.058-5.853,1.2-9.207,1.744,0,4.519-.137,9.011.12,13.48.049.852,1.559,2.143,2.56,2.321a81.785,81.785,0,0,0,8.459.707Z" transform="translate(-875.264 -348.233)"/><path class="a" d="M712.122,384.414a14.657,14.657,0,0,0-1.627,3.5c-.848,4.875-1.619,9.771-2.174,14.685-.357,3.158-2.581,3.072-4.681,2.879-2.284-.209-5.541,1.346-6.269-2.544q-4.872-26.051-9.65-52.119a12.028,12.028,0,0,1,.121-2.032c3.026,0,6.136-.311,9.114.174,1,.163,2.215,2.277,2.4,3.624,1.228,9.107,2.206,18.248,3.371,28.3,3.224-6.451.314-13.376,3.208-18.34.29-4.642.185-8.938,1.147-12.986.177-.746,4.711-.8,7.152-.509.792.095,1.765,2.27,1.9,3.573.907,8.446,1.6,16.915,2.381,25.374a5.331,5.331,0,0,0,.937,2.736c1.149-9.394,2.416-18.777,3.375-28.19.292-2.864,1.24-4.05,4.2-3.81,2.517.2,5.064.042,8.077.042-2.249,12.031-4.368,23.409-6.507,34.784-1.177,6.26-2.532,12.492-3.537,18.779-.785,4.91-4.5,2.632-7.063,3.107-2.612.484-3.932-.7-4.223-3.39-.411-3.795-1.261-7.547-1.59-11.345-.166-1.923.4-3.907.634-5.864Z" transform="translate(-633.239 -348.085)"/><path class="a" d="M832.084,349.118c7.667-1.29,7.56-1.055,9.624,5.787a98.021,98.021,0,0,0,7.518,17.486v-23.5h9.848V404.7c-7.45,1.348-7.463,1.349-9.794-5.462q-3.119-9.112-6.2-18.235l-1.274.173c0,5.945-.019,11.89,0,17.835.027,6.874.009,6.91-6.843,6.239-.838-.082-1.665-.266-2.883-.465Z" transform="translate(-720.563 -347.978)"/><path class="a" d="M566.321,383.636l-3.055,3.437-2.678-6.953c1.089,8.817-2.755,14.928-10.627,19.318V349.193c6.929-1.6,7.529-1.263,8.964,4.68a66.452,66.452,0,0,0,3.318,10.679l-.286-2.821.455-.081,3.9,11,.982-.149c0-5.816.013-11.632,0-17.448-.018-6.682-.029-6.686,6.726-6.489.845.025,1.688.132,2.841.227,0,7.578.335,15.105-.253,22.561-.134,1.7-3.456,3.157-6.023,5.328,4.765-.216,6.177,1.648,5.212,5.066-.865,3.065-2.049,6.041-2.205,9.438l3.418-6.835v20.166c-6.2,1.885-7.216,1.246-7.91-4.883a43.715,43.715,0,0,1-.617-4.616c0-.816.654-1.634,1.144-2.748l-2.389-1.171-.452,3.775-.783.185c-.648-1.885-1.947-3.835-1.761-5.636.19-1.843,1.835-3.539,2.844-5.3Z" transform="translate(-549.936 -347.898)"/><path class="a" d="M638.954,348.774l-3.733,6.1,1.079.662c1.265-1.867,2.462-3.785,3.835-5.571a3.153,3.153,0,0,1,2.051-1.165c2.962-.129,5.932-.054,9.944-.054-.6,3.487-.146,7.729-1.834,8.875-2.121,1.44-6,.347-9.425.347-.129,1.808-.278,3.036-.3,4.265-.1,7.073-.094,7.263,6.883,7.574,4.167.186,2.9,2.97,3.045,5.121.154,2.3.4,4.746-3.235,4.517-1.98-.125-3.975-.023-6.65-.023,0,5.062-.11,9.813.121,14.548.034.694,1.64,1.77,2.6,1.872a78.8,78.8,0,0,0,7.994.09v9.387c-6.386,0-12.748.079-19.1-.126-.614-.02-1.669-1.8-1.676-2.769-.09-11.968-.177-23.941.149-35.9.056-2.05,2.04-4.048,3.244-6.275l-3.366.306c0-3.209-.16-6.414.113-9.581.068-.795,1.432-1.908,2.367-2.107C634.7,348.524,636.461,348.774,638.954,348.774Z" transform="translate(-598.632 -348.089)"/><path class="a" d="M983.333,405.229a20.583,20.583,0,0,1-.413-2.763c-.019-16.665.041-33.33-.055-49.995-.017-2.971,1.063-4.071,4-3.792,1.813.172,3.657.032,6.1.032,0,3.7.024,7.016,0,10.329-.067,7.749.023,15.505-.3,23.245-.254,6.138.13,12.246.437,18.346.2,4.013-1.212,5.37-5.051,4.849C986.525,405.274,984.974,405.309,983.333,405.229Z" transform="translate(-811.755 -348.059)"/><path class="a" d="M552,479.434l7.746,3.217-.023,1.168c-3.06.167-6.12.386-9.18.393a3.111,3.111,0,0,1-.578-2.331A10.522,10.522,0,0,1,552,479.434Z" transform="translate(-549.898 -427.164)"/><path class="a" d="M565.965,470.118l-5.921-2.031,5.442-6.7Z" transform="translate(-556.034 -416.251)"/></svg>