<svg xmlns="http://www.w3.org/2000/svg" width="129.57" height="65.242" viewBox="0 0 129.57 65.242"><defs><style>.a{fill:#fff;}</style></defs><g transform="translate(0.001)"><path class="a" d="M759.157,337.133c-2.688,5.468-4.031,11.4-5.989,17.127-.615,1.8-1.292,2.8-3.562,2.773-11.683-.144-23.37-.11-35.055-.029-2.258.016-2.893-.36-2.005-2.72,1.955-5.2,3.653-10.494,5.358-15.781.444-1.376.864-2.362,2.594-2.352,12.675.078,25.35.1,38.025.14a2.413,2.413,0,0,1,.633.182Z" transform="translate(-629.588 -336.117)"/><path class="a" d="M706.276,391c1.944-6.239,3.791-12.035,5.538-17.859a2.414,2.414,0,0,1,2.78-1.978c8.147.077,16.3.043,24.444.033,2.451,0,3.421.871,2.574,3.45q-5.858,17.834-11.55,35.722c-.633,1.976-1.865,2.7-3.92,2.694q-17.673-.082-35.345,0c-1.931.008-2.541-.375-1.752-2.406,1.815-4.667,3.524-9.382,5.04-14.151.585-1.838,1.488-2.35,3.3-2.316,5.173.1,10.349.032,15.525.036,1.344,0,2.733.173,2.677-1.884-.058-2.165-1.677-1.234-2.638-1.3C710.874,390.909,708.782,391,706.276,391Z" transform="translate(-621.732 -347.845)"/><path class="a" d="M658.989,401.293c-2.425,0-4.857-.109-7.274.032-2.391.14-2.75-.565-1.921-2.782,5.579-14.905,11.037-29.856,16.54-44.789,1.847-5.012,3.8-9.989,5.524-15.043.62-1.816,1.4-2.668,3.461-2.608,4.845.142,9.7.107,14.548.016,1.977-.037,2.785.26,1.958,2.494q-11.179,30.209-22.18,60.484c-.588,1.619-1.341,2.292-3.052,2.223C664.063,401.216,661.524,401.292,658.989,401.293Z" transform="translate(-608.563 -336.1)"/><path class="a" d="M611.459,401.215c3.043-7.956,5.929-15.465,8.789-22.984,4.929-12.958,9.9-25.9,14.708-38.9.869-2.35,2.048-3.217,4.553-3.084,3.958.209,7.941.178,11.9.013,2.613-.11,3.157.412,2.122,3.02-6.04,15.221-11.9,30.511-17.833,45.775-1.819,4.682-3.7,9.342-5.465,14.043-.464,1.232-.928,2.149-2.466,2.137C622.5,401.19,617.222,401.215,611.459,401.215Z" transform="translate(-595.857 -336.143)"/><path class="a" d="M602.61,398.063c-2.134-8.547-4.092-16.241-5.974-23.954-2.791-11.437-5.425-22.913-8.359-34.313-.759-2.951-.021-3.628,2.814-3.533,4.845.162,9.7.131,14.549,0,1.9-.05,2.775.57,3.092,2.423,1.6,9.354,3.256,18.7,4.911,28.042a5.845,5.845,0,0,1-.154,3.221C609.983,379.007,606.48,388.062,602.61,398.063Z" transform="translate(-587.998 -336.151)"/></g></svg>