<svg xmlns="http://www.w3.org/2000/svg" width="82.645" height="82.477" viewBox="0 0 82.645 82.477"><defs><style>.a{fill:#fff;}</style></defs><g transform="translate(0)"><path class="a" d="M45.56,497.7C23.768,497.58,6.5,482.418,3.725,461.772A41.281,41.281,0,0,1,85.2,448.679c2.671,14.2-1.4,26.52-11.323,36.972-.823.867-1.206.686-1.841-.152-2.344-3.093-4.771-6.123-7.118-9.215-.506-.667-.841-.705-1.445-.158a19.213,19.213,0,0,1-2.435,1.909c-.785.508-.822.9-.236,1.631,2.452,3.062,4.823,6.189,7.273,9.253.583.729.658,1.1-.214,1.683A41.05,41.05,0,0,1,45.56,497.7ZM11.4,460.326a2.79,2.79,0,0,0,1.415.745c4.907,1.709,9.808,3.437,14.744,5.058a1.964,1.964,0,0,1,1.6,2.164c.161,5.693.432,11.384.677,17.075a3.476,3.476,0,0,0,.3,1.779c2.184-1.622,4.312-3.24,6.485-4.8a1.889,1.889,0,0,0,.912-1.842c-.189-3.3-.267-6.6-.472-9.894-.066-1.068.194-1.159,1.131-.819,3.141,1.139,6.317,2.181,9.464,3.305a1.557,1.557,0,0,0,1.685-.241c1.891-1.466,3.832-2.867,5.741-4.309.332-.251.8-.4.926-.936-6.06-2.083-12.056-4.173-18.078-6.183a1.586,1.586,0,0,1-1.291-1.728c-.2-5.486-.462-10.97-.72-16.454-.014-.3.16-.755-.247-.863-.2-.053-.509.21-.735.376-1.958,1.448-3.891,2.93-5.872,4.346a1.684,1.684,0,0,0-.756,1.671c.158,2.719.256,5.442.388,8.163.061,1.251-.015,1.317-1.262.891a53.716,53.716,0,0,1-5.944-2.1,4.071,4.071,0,0,0-5.081.778C14.872,457.909,13.1,459.053,11.4,460.326Zm48.6-33.085a14.684,14.684,0,0,0-10.014,4.014c-4.852,4.179-7.531,11.239-.856,17.225a7.083,7.083,0,0,0,6.293,1.832,18.828,18.828,0,0,0,5.6-1.9,18.4,18.4,0,0,1,4.563-2.166,1.83,1.83,0,0,1,2.331,2.418,3.421,3.421,0,0,1-.67,1.31,10.293,10.293,0,0,1-8.8,3.944c-.846-.057-1,.237-1.05.9-.143,1.853-.225,3.715-.476,5.553-.14,1.028.208,1.285,1.141,1.314a17.707,17.707,0,0,0,16.556-8.956c3.325-5.423.6-12.274-5.42-14.506a6.894,6.894,0,0,0-2.671-.4,15.816,15.816,0,0,0-7.361,2.338,10.449,10.449,0,0,1-4.286,1.5c-1.439.121-2.09-.708-1.7-2.093a3.132,3.132,0,0,1,.544-1.1c1.861-2.3,4.1-3.846,7.243-3.365.785.12,1.029-.163,1.069-.9.079-1.442.224-2.881.335-4.322C62.587,427.118,63.094,427.365,60.006,427.241Z" transform="translate(-3.358 -415.223)"/></g></svg>